<mxfile host="app.diagrams.net" modified="2023-07-14T15:57:24.371Z" agent="Mozilla/5.0 (X11; Linux x86_64; rv:102.0) Gecko/20100101 Firefox/102.0" etag="97R_D80LkLe8PQCZKVze" version="21.6.2" type="device">
  <diagram name="Page-1" id="wslKruWuGXa6cZuslO9R">
    <mxGraphModel dx="953" dy="498" grid="1" gridSize="10" guides="1" tooltips="1" connect="1" arrows="1" fold="1" page="1" pageScale="1" pageWidth="850" pageHeight="1100" math="0" shadow="0">
      <root>
        <mxCell id="0" />
        <mxCell id="1" parent="0" />
        <mxCell id="kv5r_tNQWLe1OHGMp6oc-141" value="" style="rounded=0;whiteSpace=wrap;html=1;fillColor=none;strokeWidth=2;strokeColor=#82b366;" vertex="1" parent="1">
          <mxGeometry x="190" y="410" width="40" height="100" as="geometry" />
        </mxCell>
        <mxCell id="kv5r_tNQWLe1OHGMp6oc-2" value="" style="rounded=0;whiteSpace=wrap;html=1;movable=1;resizable=1;rotatable=1;deletable=1;editable=1;locked=0;connectable=1;" vertex="1" parent="1">
          <mxGeometry x="80" y="70" width="720" height="460" as="geometry" />
        </mxCell>
        <mxCell id="kv5r_tNQWLe1OHGMp6oc-3" value="" style="whiteSpace=wrap;html=1;aspect=fixed;" vertex="1" parent="1">
          <mxGeometry x="390" y="120" width="380" height="380" as="geometry" />
        </mxCell>
        <mxCell id="kv5r_tNQWLe1OHGMp6oc-13" value="" style="rounded=0;whiteSpace=wrap;html=1;" vertex="1" parent="1">
          <mxGeometry x="130" y="90" width="40" height="70" as="geometry" />
        </mxCell>
        <mxCell id="kv5r_tNQWLe1OHGMp6oc-14" value="C: 7" style="text;html=1;strokeColor=none;fillColor=none;align=center;verticalAlign=middle;whiteSpace=wrap;rounded=0;" vertex="1" parent="1">
          <mxGeometry x="120" y="90" width="60" height="30" as="geometry" />
        </mxCell>
        <mxCell id="kv5r_tNQWLe1OHGMp6oc-15" value="" style="shape=flexArrow;endArrow=classic;html=1;rounded=0;width=14;endSize=2;entryX=0.5;entryY=1;entryDx=0;entryDy=0;endWidth=9;" edge="1" parent="1" target="kv5r_tNQWLe1OHGMp6oc-14">
          <mxGeometry width="50" height="50" relative="1" as="geometry">
            <mxPoint x="150" y="130" as="sourcePoint" />
            <mxPoint x="610" y="-110" as="targetPoint" />
            <Array as="points">
              <mxPoint x="150" y="120" />
            </Array>
          </mxGeometry>
        </mxCell>
        <mxCell id="kv5r_tNQWLe1OHGMp6oc-16" value="" style="shape=flexArrow;endArrow=classic;html=1;rounded=0;width=14;endSize=2;entryX=0.5;entryY=1;entryDx=0;entryDy=0;endWidth=9;" edge="1" parent="1">
          <mxGeometry width="50" height="50" relative="1" as="geometry">
            <mxPoint x="149.75" y="140" as="sourcePoint" />
            <mxPoint x="149.75" y="150" as="targetPoint" />
            <Array as="points">
              <mxPoint x="149.75" y="170" />
              <mxPoint x="149.75" y="140" />
              <mxPoint x="149.75" y="150" />
            </Array>
          </mxGeometry>
        </mxCell>
        <mxCell id="kv5r_tNQWLe1OHGMp6oc-21" value="" style="rounded=0;whiteSpace=wrap;html=1;" vertex="1" parent="1">
          <mxGeometry x="190" y="90" width="40" height="70" as="geometry" />
        </mxCell>
        <mxCell id="kv5r_tNQWLe1OHGMp6oc-22" value="C: 7" style="text;html=1;strokeColor=none;fillColor=none;align=center;verticalAlign=middle;whiteSpace=wrap;rounded=0;" vertex="1" parent="1">
          <mxGeometry x="180" y="90" width="60" height="30" as="geometry" />
        </mxCell>
        <mxCell id="kv5r_tNQWLe1OHGMp6oc-23" value="" style="shape=flexArrow;endArrow=classic;html=1;rounded=0;width=14;endSize=2;entryX=0.5;entryY=1;entryDx=0;entryDy=0;endWidth=9;" edge="1" parent="1" target="kv5r_tNQWLe1OHGMp6oc-22">
          <mxGeometry width="50" height="50" relative="1" as="geometry">
            <mxPoint x="210" y="130" as="sourcePoint" />
            <mxPoint x="670" y="-110" as="targetPoint" />
            <Array as="points">
              <mxPoint x="210" y="120" />
            </Array>
          </mxGeometry>
        </mxCell>
        <mxCell id="kv5r_tNQWLe1OHGMp6oc-24" value="" style="shape=flexArrow;endArrow=classic;html=1;rounded=0;width=14;endSize=2;entryX=0.5;entryY=1;entryDx=0;entryDy=0;endWidth=9;" edge="1" parent="1">
          <mxGeometry width="50" height="50" relative="1" as="geometry">
            <mxPoint x="209.75" y="140" as="sourcePoint" />
            <mxPoint x="209.75" y="150" as="targetPoint" />
            <Array as="points">
              <mxPoint x="209.75" y="170" />
              <mxPoint x="209.75" y="140" />
              <mxPoint x="209.75" y="150" />
            </Array>
          </mxGeometry>
        </mxCell>
        <mxCell id="kv5r_tNQWLe1OHGMp6oc-25" value="" style="rounded=0;whiteSpace=wrap;html=1;" vertex="1" parent="1">
          <mxGeometry x="250" y="90" width="40" height="70" as="geometry" />
        </mxCell>
        <mxCell id="kv5r_tNQWLe1OHGMp6oc-26" value="C: 7" style="text;html=1;strokeColor=none;fillColor=none;align=center;verticalAlign=middle;whiteSpace=wrap;rounded=0;" vertex="1" parent="1">
          <mxGeometry x="240" y="90" width="60" height="30" as="geometry" />
        </mxCell>
        <mxCell id="kv5r_tNQWLe1OHGMp6oc-27" value="" style="shape=flexArrow;endArrow=classic;html=1;rounded=0;width=14;endSize=2;entryX=0.5;entryY=1;entryDx=0;entryDy=0;endWidth=9;" edge="1" parent="1" target="kv5r_tNQWLe1OHGMp6oc-26">
          <mxGeometry width="50" height="50" relative="1" as="geometry">
            <mxPoint x="270" y="130" as="sourcePoint" />
            <mxPoint x="730" y="-110" as="targetPoint" />
            <Array as="points">
              <mxPoint x="270" y="120" />
            </Array>
          </mxGeometry>
        </mxCell>
        <mxCell id="kv5r_tNQWLe1OHGMp6oc-28" value="" style="shape=flexArrow;endArrow=classic;html=1;rounded=0;width=14;endSize=2;entryX=0.5;entryY=1;entryDx=0;entryDy=0;endWidth=9;" edge="1" parent="1">
          <mxGeometry width="50" height="50" relative="1" as="geometry">
            <mxPoint x="269.75" y="140" as="sourcePoint" />
            <mxPoint x="269.75" y="150" as="targetPoint" />
            <Array as="points">
              <mxPoint x="269.75" y="170" />
              <mxPoint x="269.75" y="140" />
              <mxPoint x="269.75" y="150" />
            </Array>
          </mxGeometry>
        </mxCell>
        <mxCell id="kv5r_tNQWLe1OHGMp6oc-29" value="" style="rounded=0;whiteSpace=wrap;html=1;" vertex="1" parent="1">
          <mxGeometry x="310" y="90" width="40" height="70" as="geometry" />
        </mxCell>
        <mxCell id="kv5r_tNQWLe1OHGMp6oc-30" value="C: 7" style="text;html=1;strokeColor=none;fillColor=none;align=center;verticalAlign=middle;whiteSpace=wrap;rounded=0;" vertex="1" parent="1">
          <mxGeometry x="300" y="90" width="60" height="30" as="geometry" />
        </mxCell>
        <mxCell id="kv5r_tNQWLe1OHGMp6oc-31" value="" style="shape=flexArrow;endArrow=classic;html=1;rounded=0;width=14;endSize=2;entryX=0.5;entryY=1;entryDx=0;entryDy=0;endWidth=9;" edge="1" parent="1" target="kv5r_tNQWLe1OHGMp6oc-30">
          <mxGeometry width="50" height="50" relative="1" as="geometry">
            <mxPoint x="330" y="130" as="sourcePoint" />
            <mxPoint x="790" y="-110" as="targetPoint" />
            <Array as="points">
              <mxPoint x="330" y="120" />
            </Array>
          </mxGeometry>
        </mxCell>
        <mxCell id="kv5r_tNQWLe1OHGMp6oc-32" value="" style="shape=flexArrow;endArrow=classic;html=1;rounded=0;width=14;endSize=2;entryX=0.5;entryY=1;entryDx=0;entryDy=0;endWidth=9;" edge="1" parent="1">
          <mxGeometry width="50" height="50" relative="1" as="geometry">
            <mxPoint x="329.75" y="140" as="sourcePoint" />
            <mxPoint x="329.75" y="150" as="targetPoint" />
            <Array as="points">
              <mxPoint x="329.75" y="170" />
              <mxPoint x="329.75" y="140" />
              <mxPoint x="329.75" y="150" />
            </Array>
          </mxGeometry>
        </mxCell>
        <mxCell id="kv5r_tNQWLe1OHGMp6oc-36" value="" style="rounded=0;whiteSpace=wrap;html=1;" vertex="1" parent="1">
          <mxGeometry x="130" y="190" width="40" height="100" as="geometry" />
        </mxCell>
        <mxCell id="kv5r_tNQWLe1OHGMp6oc-37" value="&lt;p class=&quot;LC20lb MBeuO DKV0Md&quot;&gt;7&lt;/p&gt;&lt;p&gt;&lt;/p&gt;" style="text;html=1;strokeColor=none;fillColor=none;align=center;verticalAlign=middle;whiteSpace=wrap;rounded=0;" vertex="1" parent="1">
          <mxGeometry x="120" y="190" width="60" height="30" as="geometry" />
        </mxCell>
        <mxCell id="kv5r_tNQWLe1OHGMp6oc-38" value="" style="shape=flexArrow;endArrow=classic;html=1;rounded=0;width=14;endSize=2;entryX=0.5;entryY=1;entryDx=0;entryDy=0;endWidth=9;" edge="1" target="kv5r_tNQWLe1OHGMp6oc-37" parent="1">
          <mxGeometry width="50" height="50" relative="1" as="geometry">
            <mxPoint x="150" y="230" as="sourcePoint" />
            <mxPoint x="610" y="-10" as="targetPoint" />
            <Array as="points">
              <mxPoint x="150" y="220" />
            </Array>
          </mxGeometry>
        </mxCell>
        <mxCell id="kv5r_tNQWLe1OHGMp6oc-39" value="" style="shape=flexArrow;endArrow=classic;html=1;rounded=0;width=14;endSize=2;entryX=0.5;entryY=1;entryDx=0;entryDy=0;endWidth=9;" edge="1" parent="1">
          <mxGeometry width="50" height="50" relative="1" as="geometry">
            <mxPoint x="149.75" y="240" as="sourcePoint" />
            <mxPoint x="149.75" y="250" as="targetPoint" />
            <Array as="points">
              <mxPoint x="149.75" y="270" />
              <mxPoint x="149.75" y="240" />
              <mxPoint x="149.75" y="250" />
            </Array>
          </mxGeometry>
        </mxCell>
        <mxCell id="kv5r_tNQWLe1OHGMp6oc-52" value="" style="verticalLabelPosition=bottom;verticalAlign=top;html=1;shape=mxgraph.basic.no_symbol" vertex="1" parent="1">
          <mxGeometry x="140" y="260" width="20" height="20" as="geometry" />
        </mxCell>
        <mxCell id="kv5r_tNQWLe1OHGMp6oc-53" value="" style="rounded=0;whiteSpace=wrap;html=1;" vertex="1" parent="1">
          <mxGeometry x="190" y="190" width="40" height="100" as="geometry" />
        </mxCell>
        <mxCell id="kv5r_tNQWLe1OHGMp6oc-54" value="" style="shape=flexArrow;endArrow=classic;html=1;rounded=0;width=14;endSize=2;entryX=0.5;entryY=1;entryDx=0;entryDy=0;endWidth=9;" edge="1" parent="1">
          <mxGeometry width="50" height="50" relative="1" as="geometry">
            <mxPoint x="210" y="230" as="sourcePoint" />
            <mxPoint x="210" y="220" as="targetPoint" />
            <Array as="points">
              <mxPoint x="210" y="220" />
            </Array>
          </mxGeometry>
        </mxCell>
        <mxCell id="kv5r_tNQWLe1OHGMp6oc-55" value="" style="shape=flexArrow;endArrow=classic;html=1;rounded=0;width=14;endSize=2;entryX=0.5;entryY=1;entryDx=0;entryDy=0;endWidth=9;" edge="1" parent="1">
          <mxGeometry width="50" height="50" relative="1" as="geometry">
            <mxPoint x="209.75" y="240" as="sourcePoint" />
            <mxPoint x="209.75" y="250" as="targetPoint" />
            <Array as="points">
              <mxPoint x="209.75" y="270" />
              <mxPoint x="209.75" y="240" />
              <mxPoint x="209.75" y="250" />
            </Array>
          </mxGeometry>
        </mxCell>
        <mxCell id="kv5r_tNQWLe1OHGMp6oc-56" value="" style="verticalLabelPosition=bottom;verticalAlign=top;html=1;shape=mxgraph.basic.no_symbol" vertex="1" parent="1">
          <mxGeometry x="200" y="260" width="20" height="20" as="geometry" />
        </mxCell>
        <mxCell id="kv5r_tNQWLe1OHGMp6oc-57" value="&lt;p class=&quot;LC20lb MBeuO DKV0Md&quot;&gt;3&lt;br&gt;&lt;/p&gt;&lt;p&gt;&lt;/p&gt;" style="text;html=1;strokeColor=none;fillColor=none;align=center;verticalAlign=middle;whiteSpace=wrap;rounded=0;" vertex="1" parent="1">
          <mxGeometry x="180" y="190" width="60" height="30" as="geometry" />
        </mxCell>
        <mxCell id="kv5r_tNQWLe1OHGMp6oc-59" value="" style="rounded=0;whiteSpace=wrap;html=1;" vertex="1" parent="1">
          <mxGeometry x="250" y="190" width="40" height="100" as="geometry" />
        </mxCell>
        <mxCell id="kv5r_tNQWLe1OHGMp6oc-60" value="" style="shape=flexArrow;endArrow=classic;html=1;rounded=0;width=14;endSize=2;entryX=0.5;entryY=1;entryDx=0;entryDy=0;endWidth=9;" edge="1" parent="1">
          <mxGeometry width="50" height="50" relative="1" as="geometry">
            <mxPoint x="270" y="230" as="sourcePoint" />
            <mxPoint x="270" y="220" as="targetPoint" />
            <Array as="points">
              <mxPoint x="270" y="220" />
            </Array>
          </mxGeometry>
        </mxCell>
        <mxCell id="kv5r_tNQWLe1OHGMp6oc-61" value="" style="shape=flexArrow;endArrow=classic;html=1;rounded=0;width=14;endSize=2;entryX=0.5;entryY=1;entryDx=0;entryDy=0;endWidth=9;" edge="1" parent="1">
          <mxGeometry width="50" height="50" relative="1" as="geometry">
            <mxPoint x="269.75" y="240" as="sourcePoint" />
            <mxPoint x="269.75" y="250" as="targetPoint" />
            <Array as="points">
              <mxPoint x="269.75" y="270" />
              <mxPoint x="269.75" y="240" />
              <mxPoint x="269.75" y="250" />
            </Array>
          </mxGeometry>
        </mxCell>
        <mxCell id="kv5r_tNQWLe1OHGMp6oc-63" value="&lt;b&gt;&lt;font style=&quot;font-size: 14px;&quot;&gt;+&lt;/font&gt;&lt;/b&gt;" style="text;html=1;strokeColor=none;fillColor=none;align=center;verticalAlign=middle;whiteSpace=wrap;rounded=0;" vertex="1" parent="1">
          <mxGeometry x="260" y="260" width="20" height="20" as="geometry" />
        </mxCell>
        <mxCell id="kv5r_tNQWLe1OHGMp6oc-64" value="" style="rounded=0;whiteSpace=wrap;html=1;" vertex="1" parent="1">
          <mxGeometry x="310" y="190" width="40" height="100" as="geometry" />
        </mxCell>
        <mxCell id="kv5r_tNQWLe1OHGMp6oc-65" value="" style="shape=flexArrow;endArrow=classic;html=1;rounded=0;width=14;endSize=2;entryX=0.5;entryY=1;entryDx=0;entryDy=0;endWidth=9;" edge="1" parent="1">
          <mxGeometry width="50" height="50" relative="1" as="geometry">
            <mxPoint x="330" y="230" as="sourcePoint" />
            <mxPoint x="330" y="220" as="targetPoint" />
            <Array as="points">
              <mxPoint x="330" y="220" />
            </Array>
          </mxGeometry>
        </mxCell>
        <mxCell id="kv5r_tNQWLe1OHGMp6oc-66" value="" style="shape=flexArrow;endArrow=classic;html=1;rounded=0;width=14;endSize=2;entryX=0.5;entryY=1;entryDx=0;entryDy=0;endWidth=9;" edge="1" parent="1">
          <mxGeometry width="50" height="50" relative="1" as="geometry">
            <mxPoint x="329.75" y="240" as="sourcePoint" />
            <mxPoint x="329.75" y="250" as="targetPoint" />
            <Array as="points">
              <mxPoint x="329.75" y="270" />
              <mxPoint x="329.75" y="240" />
              <mxPoint x="329.75" y="250" />
            </Array>
          </mxGeometry>
        </mxCell>
        <mxCell id="kv5r_tNQWLe1OHGMp6oc-67" value="&lt;b&gt;&lt;font style=&quot;font-size: 14px;&quot;&gt;+&lt;/font&gt;&lt;/b&gt;" style="text;html=1;strokeColor=none;fillColor=none;align=center;verticalAlign=middle;whiteSpace=wrap;rounded=0;" vertex="1" parent="1">
          <mxGeometry x="320" y="260" width="20" height="20" as="geometry" />
        </mxCell>
        <mxCell id="kv5r_tNQWLe1OHGMp6oc-105" value="" style="rounded=0;whiteSpace=wrap;html=1;" vertex="1" parent="1">
          <mxGeometry x="130" y="300" width="40" height="100" as="geometry" />
        </mxCell>
        <mxCell id="kv5r_tNQWLe1OHGMp6oc-106" value="&lt;p class=&quot;LC20lb MBeuO DKV0Md&quot;&gt;0&lt;br&gt;&lt;/p&gt;&lt;p&gt;&lt;/p&gt;" style="text;html=1;strokeColor=none;fillColor=none;align=center;verticalAlign=middle;whiteSpace=wrap;rounded=0;" vertex="1" parent="1">
          <mxGeometry x="120" y="300" width="60" height="30" as="geometry" />
        </mxCell>
        <mxCell id="kv5r_tNQWLe1OHGMp6oc-107" value="" style="shape=flexArrow;endArrow=classic;html=1;rounded=0;width=14;endSize=2;entryX=0.5;entryY=1;entryDx=0;entryDy=0;endWidth=9;" edge="1" parent="1" target="kv5r_tNQWLe1OHGMp6oc-106">
          <mxGeometry width="50" height="50" relative="1" as="geometry">
            <mxPoint x="150" y="340" as="sourcePoint" />
            <mxPoint x="610" y="100" as="targetPoint" />
            <Array as="points">
              <mxPoint x="150" y="330" />
            </Array>
          </mxGeometry>
        </mxCell>
        <mxCell id="kv5r_tNQWLe1OHGMp6oc-108" value="" style="shape=flexArrow;endArrow=classic;html=1;rounded=0;width=14;endSize=2;entryX=0.5;entryY=1;entryDx=0;entryDy=0;endWidth=9;" edge="1" parent="1">
          <mxGeometry width="50" height="50" relative="1" as="geometry">
            <mxPoint x="149.75" y="350" as="sourcePoint" />
            <mxPoint x="149.75" y="360" as="targetPoint" />
            <Array as="points">
              <mxPoint x="149.75" y="380" />
              <mxPoint x="149.75" y="350" />
              <mxPoint x="149.75" y="360" />
            </Array>
          </mxGeometry>
        </mxCell>
        <mxCell id="kv5r_tNQWLe1OHGMp6oc-109" value="" style="verticalLabelPosition=bottom;verticalAlign=top;html=1;shape=mxgraph.basic.no_symbol" vertex="1" parent="1">
          <mxGeometry x="140" y="370" width="20" height="20" as="geometry" />
        </mxCell>
        <mxCell id="kv5r_tNQWLe1OHGMp6oc-110" value="" style="rounded=0;whiteSpace=wrap;html=1;" vertex="1" parent="1">
          <mxGeometry x="190" y="300" width="40" height="100" as="geometry" />
        </mxCell>
        <mxCell id="kv5r_tNQWLe1OHGMp6oc-111" value="" style="shape=flexArrow;endArrow=classic;html=1;rounded=0;width=14;endSize=2;entryX=0.5;entryY=1;entryDx=0;entryDy=0;endWidth=9;" edge="1" parent="1">
          <mxGeometry width="50" height="50" relative="1" as="geometry">
            <mxPoint x="210" y="340" as="sourcePoint" />
            <mxPoint x="210" y="330" as="targetPoint" />
            <Array as="points">
              <mxPoint x="210" y="330" />
            </Array>
          </mxGeometry>
        </mxCell>
        <mxCell id="kv5r_tNQWLe1OHGMp6oc-112" value="" style="shape=flexArrow;endArrow=classic;html=1;rounded=0;width=14;endSize=2;entryX=0.5;entryY=1;entryDx=0;entryDy=0;endWidth=9;" edge="1" parent="1">
          <mxGeometry width="50" height="50" relative="1" as="geometry">
            <mxPoint x="209.75" y="350" as="sourcePoint" />
            <mxPoint x="209.75" y="360" as="targetPoint" />
            <Array as="points">
              <mxPoint x="209.75" y="380" />
              <mxPoint x="209.75" y="350" />
              <mxPoint x="209.75" y="360" />
            </Array>
          </mxGeometry>
        </mxCell>
        <mxCell id="kv5r_tNQWLe1OHGMp6oc-113" value="" style="verticalLabelPosition=bottom;verticalAlign=top;html=1;shape=mxgraph.basic.no_symbol" vertex="1" parent="1">
          <mxGeometry x="200" y="370" width="20" height="20" as="geometry" />
        </mxCell>
        <mxCell id="kv5r_tNQWLe1OHGMp6oc-114" value="&lt;p class=&quot;LC20lb MBeuO DKV0Md&quot;&gt;2&lt;br&gt;&lt;/p&gt;&lt;p&gt;&lt;/p&gt;" style="text;html=1;strokeColor=none;fillColor=none;align=center;verticalAlign=middle;whiteSpace=wrap;rounded=0;" vertex="1" parent="1">
          <mxGeometry x="180" y="300" width="60" height="30" as="geometry" />
        </mxCell>
        <mxCell id="kv5r_tNQWLe1OHGMp6oc-115" value="" style="rounded=0;whiteSpace=wrap;html=1;" vertex="1" parent="1">
          <mxGeometry x="250" y="300" width="40" height="100" as="geometry" />
        </mxCell>
        <mxCell id="kv5r_tNQWLe1OHGMp6oc-116" value="" style="shape=flexArrow;endArrow=classic;html=1;rounded=0;width=14;endSize=2;entryX=0.5;entryY=1;entryDx=0;entryDy=0;endWidth=9;" edge="1" parent="1">
          <mxGeometry width="50" height="50" relative="1" as="geometry">
            <mxPoint x="270" y="340" as="sourcePoint" />
            <mxPoint x="270" y="330" as="targetPoint" />
            <Array as="points">
              <mxPoint x="270" y="330" />
            </Array>
          </mxGeometry>
        </mxCell>
        <mxCell id="kv5r_tNQWLe1OHGMp6oc-117" value="" style="shape=flexArrow;endArrow=classic;html=1;rounded=0;width=14;endSize=2;entryX=0.5;entryY=1;entryDx=0;entryDy=0;endWidth=9;" edge="1" parent="1">
          <mxGeometry width="50" height="50" relative="1" as="geometry">
            <mxPoint x="269.75" y="350" as="sourcePoint" />
            <mxPoint x="269.75" y="360" as="targetPoint" />
            <Array as="points">
              <mxPoint x="269.75" y="380" />
              <mxPoint x="269.75" y="350" />
              <mxPoint x="269.75" y="360" />
            </Array>
          </mxGeometry>
        </mxCell>
        <mxCell id="kv5r_tNQWLe1OHGMp6oc-118" value="&lt;b&gt;&lt;font style=&quot;font-size: 14px;&quot;&gt;+&lt;/font&gt;&lt;/b&gt;" style="text;html=1;strokeColor=none;fillColor=none;align=center;verticalAlign=middle;whiteSpace=wrap;rounded=0;" vertex="1" parent="1">
          <mxGeometry x="260" y="370" width="20" height="20" as="geometry" />
        </mxCell>
        <mxCell id="kv5r_tNQWLe1OHGMp6oc-119" value="" style="rounded=0;whiteSpace=wrap;html=1;" vertex="1" parent="1">
          <mxGeometry x="310" y="300" width="40" height="100" as="geometry" />
        </mxCell>
        <mxCell id="kv5r_tNQWLe1OHGMp6oc-120" value="" style="shape=flexArrow;endArrow=classic;html=1;rounded=0;width=14;endSize=2;entryX=0.5;entryY=1;entryDx=0;entryDy=0;endWidth=9;" edge="1" parent="1">
          <mxGeometry width="50" height="50" relative="1" as="geometry">
            <mxPoint x="330" y="340" as="sourcePoint" />
            <mxPoint x="330" y="330" as="targetPoint" />
            <Array as="points">
              <mxPoint x="330" y="330" />
            </Array>
          </mxGeometry>
        </mxCell>
        <mxCell id="kv5r_tNQWLe1OHGMp6oc-121" value="" style="shape=flexArrow;endArrow=classic;html=1;rounded=0;width=14;endSize=2;entryX=0.5;entryY=1;entryDx=0;entryDy=0;endWidth=9;" edge="1" parent="1">
          <mxGeometry width="50" height="50" relative="1" as="geometry">
            <mxPoint x="329.75" y="350" as="sourcePoint" />
            <mxPoint x="329.75" y="360" as="targetPoint" />
            <Array as="points">
              <mxPoint x="329.75" y="380" />
              <mxPoint x="329.75" y="350" />
              <mxPoint x="329.75" y="360" />
            </Array>
          </mxGeometry>
        </mxCell>
        <mxCell id="kv5r_tNQWLe1OHGMp6oc-122" value="&lt;b&gt;&lt;font style=&quot;font-size: 14px;&quot;&gt;+&lt;/font&gt;&lt;/b&gt;" style="text;html=1;strokeColor=none;fillColor=none;align=center;verticalAlign=middle;whiteSpace=wrap;rounded=0;" vertex="1" parent="1">
          <mxGeometry x="320" y="370" width="20" height="20" as="geometry" />
        </mxCell>
        <mxCell id="kv5r_tNQWLe1OHGMp6oc-123" value="" style="rounded=0;whiteSpace=wrap;html=1;" vertex="1" parent="1">
          <mxGeometry x="130" y="410" width="40" height="100" as="geometry" />
        </mxCell>
        <mxCell id="kv5r_tNQWLe1OHGMp6oc-124" value="&lt;p class=&quot;LC20lb MBeuO DKV0Md&quot;&gt;6&lt;br&gt;&lt;/p&gt;&lt;p&gt;&lt;/p&gt;" style="text;html=1;strokeColor=none;fillColor=none;align=center;verticalAlign=middle;whiteSpace=wrap;rounded=0;" vertex="1" parent="1">
          <mxGeometry x="120" y="410" width="60" height="30" as="geometry" />
        </mxCell>
        <mxCell id="kv5r_tNQWLe1OHGMp6oc-125" value="" style="shape=flexArrow;endArrow=classic;html=1;rounded=0;width=14;endSize=2;entryX=0.5;entryY=1;entryDx=0;entryDy=0;endWidth=9;" edge="1" parent="1" target="kv5r_tNQWLe1OHGMp6oc-124">
          <mxGeometry width="50" height="50" relative="1" as="geometry">
            <mxPoint x="150" y="450" as="sourcePoint" />
            <mxPoint x="610" y="210" as="targetPoint" />
            <Array as="points">
              <mxPoint x="150" y="440" />
            </Array>
          </mxGeometry>
        </mxCell>
        <mxCell id="kv5r_tNQWLe1OHGMp6oc-126" value="" style="shape=flexArrow;endArrow=classic;html=1;rounded=0;width=14;endSize=2;entryX=0.5;entryY=1;entryDx=0;entryDy=0;endWidth=9;" edge="1" parent="1">
          <mxGeometry width="50" height="50" relative="1" as="geometry">
            <mxPoint x="149.75" y="460" as="sourcePoint" />
            <mxPoint x="149.75" y="470" as="targetPoint" />
            <Array as="points">
              <mxPoint x="149.75" y="490" />
              <mxPoint x="149.75" y="460" />
              <mxPoint x="149.75" y="470" />
            </Array>
          </mxGeometry>
        </mxCell>
        <mxCell id="kv5r_tNQWLe1OHGMp6oc-127" value="" style="verticalLabelPosition=bottom;verticalAlign=top;html=1;shape=mxgraph.basic.no_symbol" vertex="1" parent="1">
          <mxGeometry x="140" y="480" width="20" height="20" as="geometry" />
        </mxCell>
        <mxCell id="kv5r_tNQWLe1OHGMp6oc-128" value="" style="rounded=0;whiteSpace=wrap;html=1;" vertex="1" parent="1">
          <mxGeometry x="190" y="410" width="40" height="100" as="geometry" />
        </mxCell>
        <mxCell id="kv5r_tNQWLe1OHGMp6oc-129" value="" style="shape=flexArrow;endArrow=classic;html=1;rounded=0;width=14;endSize=2;entryX=0.5;entryY=1;entryDx=0;entryDy=0;endWidth=9;" edge="1" parent="1">
          <mxGeometry width="50" height="50" relative="1" as="geometry">
            <mxPoint x="210" y="450" as="sourcePoint" />
            <mxPoint x="210" y="440" as="targetPoint" />
            <Array as="points">
              <mxPoint x="210" y="440" />
            </Array>
          </mxGeometry>
        </mxCell>
        <mxCell id="kv5r_tNQWLe1OHGMp6oc-130" value="" style="shape=flexArrow;endArrow=classic;html=1;rounded=0;width=14;endSize=2;entryX=0.5;entryY=1;entryDx=0;entryDy=0;endWidth=9;" edge="1" parent="1">
          <mxGeometry width="50" height="50" relative="1" as="geometry">
            <mxPoint x="209.75" y="460" as="sourcePoint" />
            <mxPoint x="209.75" y="470" as="targetPoint" />
            <Array as="points">
              <mxPoint x="209.75" y="490" />
              <mxPoint x="209.75" y="460" />
              <mxPoint x="209.75" y="470" />
            </Array>
          </mxGeometry>
        </mxCell>
        <mxCell id="kv5r_tNQWLe1OHGMp6oc-131" value="" style="verticalLabelPosition=bottom;verticalAlign=top;html=1;shape=mxgraph.basic.no_symbol" vertex="1" parent="1">
          <mxGeometry x="200" y="480" width="20" height="20" as="geometry" />
        </mxCell>
        <mxCell id="kv5r_tNQWLe1OHGMp6oc-132" value="&lt;p class=&quot;LC20lb MBeuO DKV0Md&quot;&gt;3&lt;br&gt;&lt;/p&gt;&lt;p&gt;&lt;/p&gt;" style="text;html=1;strokeColor=none;fillColor=none;align=center;verticalAlign=middle;whiteSpace=wrap;rounded=0;" vertex="1" parent="1">
          <mxGeometry x="180" y="410" width="60" height="30" as="geometry" />
        </mxCell>
        <mxCell id="kv5r_tNQWLe1OHGMp6oc-133" value="" style="rounded=0;whiteSpace=wrap;html=1;" vertex="1" parent="1">
          <mxGeometry x="250" y="410" width="40" height="100" as="geometry" />
        </mxCell>
        <mxCell id="kv5r_tNQWLe1OHGMp6oc-134" value="" style="shape=flexArrow;endArrow=classic;html=1;rounded=0;width=14;endSize=2;entryX=0.5;entryY=1;entryDx=0;entryDy=0;endWidth=9;" edge="1" parent="1">
          <mxGeometry width="50" height="50" relative="1" as="geometry">
            <mxPoint x="270" y="450" as="sourcePoint" />
            <mxPoint x="270" y="440" as="targetPoint" />
            <Array as="points">
              <mxPoint x="270" y="440" />
            </Array>
          </mxGeometry>
        </mxCell>
        <mxCell id="kv5r_tNQWLe1OHGMp6oc-135" value="" style="shape=flexArrow;endArrow=classic;html=1;rounded=0;width=14;endSize=2;entryX=0.5;entryY=1;entryDx=0;entryDy=0;endWidth=9;" edge="1" parent="1">
          <mxGeometry width="50" height="50" relative="1" as="geometry">
            <mxPoint x="269.75" y="460" as="sourcePoint" />
            <mxPoint x="269.75" y="470" as="targetPoint" />
            <Array as="points">
              <mxPoint x="269.75" y="490" />
              <mxPoint x="269.75" y="460" />
              <mxPoint x="269.75" y="470" />
            </Array>
          </mxGeometry>
        </mxCell>
        <mxCell id="kv5r_tNQWLe1OHGMp6oc-136" value="&lt;b&gt;&lt;font style=&quot;font-size: 14px;&quot;&gt;+&lt;/font&gt;&lt;/b&gt;" style="text;html=1;strokeColor=none;fillColor=none;align=center;verticalAlign=middle;whiteSpace=wrap;rounded=0;" vertex="1" parent="1">
          <mxGeometry x="260" y="480" width="20" height="20" as="geometry" />
        </mxCell>
        <mxCell id="kv5r_tNQWLe1OHGMp6oc-137" value="" style="rounded=0;whiteSpace=wrap;html=1;" vertex="1" parent="1">
          <mxGeometry x="310" y="410" width="40" height="100" as="geometry" />
        </mxCell>
        <mxCell id="kv5r_tNQWLe1OHGMp6oc-138" value="" style="shape=flexArrow;endArrow=classic;html=1;rounded=0;width=14;endSize=2;entryX=0.5;entryY=1;entryDx=0;entryDy=0;endWidth=9;" edge="1" parent="1">
          <mxGeometry width="50" height="50" relative="1" as="geometry">
            <mxPoint x="330" y="450" as="sourcePoint" />
            <mxPoint x="330" y="440" as="targetPoint" />
            <Array as="points">
              <mxPoint x="330" y="440" />
            </Array>
          </mxGeometry>
        </mxCell>
        <mxCell id="kv5r_tNQWLe1OHGMp6oc-139" value="" style="shape=flexArrow;endArrow=classic;html=1;rounded=0;width=14;endSize=2;entryX=0.5;entryY=1;entryDx=0;entryDy=0;endWidth=9;" edge="1" parent="1">
          <mxGeometry width="50" height="50" relative="1" as="geometry">
            <mxPoint x="329.75" y="460" as="sourcePoint" />
            <mxPoint x="329.75" y="470" as="targetPoint" />
            <Array as="points">
              <mxPoint x="329.75" y="490" />
              <mxPoint x="329.75" y="460" />
              <mxPoint x="329.75" y="470" />
            </Array>
          </mxGeometry>
        </mxCell>
        <mxCell id="kv5r_tNQWLe1OHGMp6oc-140" value="&lt;b&gt;&lt;font style=&quot;font-size: 14px;&quot;&gt;+&lt;/font&gt;&lt;/b&gt;" style="text;html=1;strokeColor=none;fillColor=none;align=center;verticalAlign=middle;whiteSpace=wrap;rounded=0;" vertex="1" parent="1">
          <mxGeometry x="320" y="480" width="20" height="20" as="geometry" />
        </mxCell>
        <mxCell id="kv5r_tNQWLe1OHGMp6oc-142" value="&lt;p class=&quot;LC20lb MBeuO DKV0Md&quot;&gt;&lt;/p&gt;&lt;h3 class=&quot;LC20lb MBeuO DKV0Md&quot;&gt;🤖&lt;br&gt;&lt;/h3&gt;&lt;p&gt;&lt;/p&gt;" style="text;html=1;strokeColor=none;fillColor=none;align=center;verticalAlign=middle;whiteSpace=wrap;rounded=0;" vertex="1" parent="1">
          <mxGeometry x="120" y="160" width="60" height="30" as="geometry" />
        </mxCell>
        <mxCell id="kv5r_tNQWLe1OHGMp6oc-143" value="&lt;p class=&quot;LC20lb MBeuO DKV0Md&quot;&gt;&lt;/p&gt;&lt;h3 class=&quot;LC20lb MBeuO DKV0Md&quot;&gt;🤖&lt;br&gt;&lt;/h3&gt;&lt;p&gt;&lt;/p&gt;" style="text;html=1;strokeColor=none;fillColor=none;align=center;verticalAlign=middle;whiteSpace=wrap;rounded=0;" vertex="1" parent="1">
          <mxGeometry x="180" y="160" width="60" height="30" as="geometry" />
        </mxCell>
        <mxCell id="kv5r_tNQWLe1OHGMp6oc-144" value="&lt;h3 class=&quot;LC20lb MBeuO DKV0Md&quot;&gt;💎&lt;/h3&gt;" style="text;whiteSpace=wrap;html=1;" vertex="1" parent="1">
          <mxGeometry x="140" y="50" width="50" height="70" as="geometry" />
        </mxCell>
        <mxCell id="kv5r_tNQWLe1OHGMp6oc-145" value="&lt;h3 class=&quot;LC20lb MBeuO DKV0Md&quot;&gt;💎&lt;/h3&gt;" style="text;whiteSpace=wrap;html=1;" vertex="1" parent="1">
          <mxGeometry x="200" y="50" width="50" height="70" as="geometry" />
        </mxCell>
        <mxCell id="kv5r_tNQWLe1OHGMp6oc-146" value="&lt;h3 class=&quot;LC20lb MBeuO DKV0Md&quot;&gt;💎&lt;/h3&gt;" style="text;whiteSpace=wrap;html=1;" vertex="1" parent="1">
          <mxGeometry x="260" y="50" width="50" height="70" as="geometry" />
        </mxCell>
        <mxCell id="kv5r_tNQWLe1OHGMp6oc-147" value="&lt;h3 class=&quot;LC20lb MBeuO DKV0Md&quot;&gt;💎&lt;/h3&gt;" style="text;whiteSpace=wrap;html=1;" vertex="1" parent="1">
          <mxGeometry x="320" y="50" width="50" height="70" as="geometry" />
        </mxCell>
      </root>
    </mxGraphModel>
  </diagram>
</mxfile>
